<?xml version="1.0" encoding="UTF-8"?>
<svg id="Layer_1" xmlns="http://www.w3.org/2000/svg" version="1.1" viewBox="0 0 55.96 310.72">
  <!-- Generator: Adobe Illustrator 29.1.0, SVG Export Plug-In . SVG Version: 2.1.0 Build 142)  -->
  <defs>
    <style>
      .st0 {
        fill: #274e5f;
      }

      .st1 {
        fill: #fff;
      }

      .st2 {
        fill: #609440;
      }
    </style>
  </defs>
  <g>
    <rect class="st0" y="104.13" width="55.96" height="50.4"/>
    <path class="st1" d="M13.43,133.56s-.76,1.89-.37,3.95c.31,1.63.92,3.06,1.42,3.3.37.18.48.57.3.75-.19.18-.18.5,0,.97.18.46-.11,2.31.29,2.86.4.55,1.23,2.3,1.23,2.3l1.2-.23s-1.15-2.08-1.25-2.49c-.09-.42.28-2.14.28-2.14,0,0,.83.83.97,1.48.14.65.74,2.06.74,2.06h1.95l-.8-.94s-.69-1.5-.51-1.77c.18-.28,1.94-2,1.89-2.74,0,0,3.14,2.18,6.56,1.58,3.41-.6,4-1.08,4-1.08,0,0,.32,1.54.51,2.01.18.46-.65,3.87-.32,4.32.32.45,1.17.26,1.55.17.39-.09.26-.46,0-.83-.26-.37.42-2.2.55-1.94.19.37.15,1.33.33,1.65.18.32.79,1.03,1.58,1.04.42,0,.78-.04.74-.23-.04-.19-1.06-.92-1.34-1.57-.28-.65-.88-3.14-.56-3.41.32-.28.69-.74,1.11-.14.42.6,2.31,2.77,7.7,1.34,0,0-.04-.35-.44-.56-.39-.21-.21-.31-.09-.24.13.06.71.51,1.03.48.32-.03,1.21-1.34,1.21-1.61s-.54-.57-1.15-.96c-.6-.38-1.67-1.42-1.65-1.66.02-.24.06-.46.6-.52.53-.06,1.58.13,1.9-.48.32-.6.64-1.14.78-1.37,0,0-1.99-.17-2.77-.02,0,0,.13.03-.34-.67-.47-.7-2.7-4.59-6.78-5.84-2.52-.78-8.31-1.41-11.26-1.3-2.85.1-4.34.33-6.43,1.07-1.33.47-3.92,2.57-4.25,2.62-.33.04-.79-.81-1.4-.96-.62-.15-1.17-.32-1.4.54-.23.86-.24,1.38.22,2.67l.47,1.28s1.02-.88.9-1.31c-.12-.42-.52-.6-.46-1.15.06-.54-.12-1.3.32-1.02.44.27.72,1.08,1.21.75"/>
  </g>
  <g>
    <rect class="st2" x="0" y="156.19" width="55.96" height="50.4"/>
    <path class="st1" d="M15.01,188.77c.05.2.12.39.17.59.02.08.03.16.06.24.03.11.03.18.03.29,0,.36,0,.72.06,1.08.08.52.07,1.02.05,1.55-.02.39-.08.79-.07,1.19,0,.28.04.56-.02.83-.06.33-.19.67-.19,1.01,0,.39.1.79.12,1.18.01.15,0,.27-.04.41-.05.17-.12.37-.12.56,0,.17.1.26.21.37.05.05.11.11.14.18.04.1,0,.21,0,.31,0,.31.11.72.43.82.17.05.37.05.54.07.19.03.41.1.6.05.37-.11.3-.59.13-.83-.2-.29-.43-.57-.43-.94,0-.38,0-.76.02-1.15.06-.87.1-1.72.7-2.4.17-.19.36-.38.56-.56.28-.25.51-.51.75-.8-.05.32-.15.65-.14.97.01.32.19.59.34.86.26.47.42.95.5,1.48.05.32.04.61.15.92.05.13.1.26.18.37.04.06.07.11.12.17.06.08.06.14.08.23.02.13.03.29.1.41.08.13.21.19.35.24.31.12.66.2.99.23.18.01.6.03.59-.25,0-.16-.15-.34-.21-.5-.05-.14-.1-.26-.16-.4-.04-.09-.11-.2-.12-.31-.02-.14.06-.32.06-.47.01-.31-.43-2.36-.45-2.7-.01-.28.04-.61.18-.86.31-.55.81-.96,1.27-1.38.08-.08.1-.06.2-.03.07.02.15.04.22.06.16.04.31.08.47.13.32.08.63.15.95.25.62.18,1.21.3,1.86.29.66-.01,1.29-.14,1.94-.24.31-.04.62-.09.92-.14.5-.08.99-.09,1.49-.22.05-.01.18-.08.22-.06.04.02.08.14.1.19.06.14.09.29.1.44,0,.14,0,.28.03.41.04.15.13.21.24.3.14.11.17.29.19.46.03.25.11.57.35.71.1.06.22.08.29.18.07.11.05.32.08.46.02.09.12.26.11.35,0,.03-.07.09-.08.12-.31.53-.03,1.2.16,1.72.11.31.19.62.23.94.04.31.02.63.01.94,0,.67.59.9,1.16,1,.26.04.54,0,.54-.32.32.17.64.2.99.21-.09-.77-.25-1.53-.31-2.3-.03-.4-.04-.82.02-1.22.06-.4.19-.79.32-1.18.12-.37.23-.75.29-1.14.03-.2.08-.37.15-.56.11-.29.29-.49.47-.73.05-.07.09-.19.14-.25.05-.05.18-.05.26-.07.18-.04.34-.12.48-.24.25-.21.34-.54.58-.76.11-.1.22-.21.28-.34.08-.17.1-.25.26-.37.28-.19.55-.43.74-.71.15-.22.22-.45.29-.7.03-.11.1-.2.16-.3.09-.17.16-.35.2-.53.09-.38.08-.78.08-1.17,0-.4,0-.81.08-1.21.05-.23.13-.45.2-.67.06-.18.12-.35.18-.53.05-.17.06-.42.16-.56.12-.17.23-.29.31-.48.07-.17.12-.35.21-.5.1-.17.25-.25.28-.45.03-.18.25-.23.37-.35.13-.12.22-.28.26-.45.26.1.53.1.78-.03.27-.15.36-.46.57-.68.11-.12.19-.23.2-.4,0-.08,0-.16-.03-.24,0,0-.05-.1-.04-.12,0-.02.1-.11.12-.13.2-.29.13-.66-.05-.95-.18-.28-.45-.49-.66-.75-.11-.13-.2-.25-.19-.43,0-.09.02-.18.01-.27,0-.08-.05-.22-.04-.29.01-.05.08-.06.14-.1.06-.04.1-.12.15-.16.05-.03.17-.03.23-.05.1-.03.19-.06.28-.11.22-.1.41-.24.61-.38.11-.08.24-.24.06-.32-.08-.04-.2-.05-.29-.07-.31-.07-.59-.1-.9,0,0-.09-.03-.18-.08-.25-.04-.06-.11-.08-.15-.13-.05-.06-.06-.17-.14-.23-.14-.12-.19-.28-.36-.38-.19-.1-.41-.11-.61-.18-.17-.05-.34-.16-.52-.12-.09.02-.16.06-.26.04-.13-.02-.25-.08-.37-.12-.2-.05-.4-.05-.6.01-.1.03-.18.08-.28.08-.11,0-.22-.04-.34-.03-.44,0-.82.22-1.15.49-.36.28-.76.56-1.05.92-.02.03-.06.09-.08.1-.04.03-.14.02-.19.03-.1,0-.19.01-.29.01-.2,0-.41.04-.52.23-.09.16-.04.31.04.47.03.06.06.11.11.16.05.05.07.04.06.1-.01.06-.11.14-.14.19-.26.34-.52.68-.81.99-.14.16-.28.32-.4.49-.09.13-.13.24-.26.32-.08.05-.16.09-.24.14-.06.04-.12.07-.17.12-.05.05-.07.14-.11.18-.06.06-.36.07-.46.09-.21.05-.42.11-.62.18-.1.03-.18.07-.29.08-.1,0-.2,0-.3.01-.11.02-.2.05-.3.03-.13-.03-.26-.07-.39-.09-.45-.06-.9.03-1.34.1-.22.03-.44.06-.67.05-.25,0-.49-.04-.74-.01-.43.05-.83-.13-1.26-.1-.27.02-.53.11-.8.13-.12,0-.2-.09-.31-.15-.09-.05-.18-.1-.27-.13-.25-.1-.52-.15-.78-.17-.25-.02-.51.03-.76-.03-.29-.07-.58-.15-.87-.21-.13-.03-.26-.05-.4-.07-.27-.03-.53,0-.8.03-.07.03-.16-.02-.24-.04-.14-.04-.29-.07-.44-.09-.3-.04-.59,0-.88.03-.58.07-1.16.18-1.74.3-.83.17-1.85.27-2.52.82-.19.15-.35.3-.44.52-.07.17-.19.31-.25.49-.04.12-.08.24-.11.36-.02.12-.02.24-.07.35-.1.24-.24.47-.32.72-.17.49-.35.97-.42,1.48-.04.28.04.55.02.83-.01.26-.13.55-.21.8-.1.34-.14.63-.06.98.03.11.06.22.08.34.06.25.12.5.18.76ZM33.66,196.84c.07-.38.22-.74.3-1.12.04-.19.03-.38.04-.57.02.14,0,.28.02.41.02.12.05.23.07.35.03.25.03.5.02.74-.04.51-.17,1-.3,1.49-.17-.41-.21-.86-.14-1.3Z"/>
  </g>
  <g>
    <rect class="st0" width="55.96" height="50.4"/>
    <path class="st1" d="M50.83,22.45s.21-.28-.77-.91c-.98-.63-2.19-2.45-2.21-3.12,0,0,1.75-.28,1.75-1.03,0,0-1.03-.67-2.1-.25-1.07.42-1.23-.4-1.23-.4,0,0,.91-.51,1.72-.28.05.01-.54-.7-1.81-.66-1.35.05-1.48.05-1.92.24-.44.19-2.03.14-1.98.67s-.26.7-.54.84c-.28.14-4.73,2.03-5.94,2.21-1.21.18-4.64-.45-7.01.35-2.38.79-14.49-.23-14.49-.23,0,0-2.24-.09-2.91.51-.68.61-2.28.7-1.96,6.64s.12,6.27-.33,7.22c-.44.95-.93,3.59.54,4.89,0,0,.23-2,.56-2.59.33-.58.21-2.05.07-3.7-.14-1.65-.26-7.59.14-8.71,0,0,1.42,5.15,1.63,6.36.21,1.21-1.28,4.12-1.26,5.15.02,1.03-1,6.24-.54,6.38.47.14.54-.44.56-.3.02.14-.07,1.39.67,1.82.75.42,1.82.47,2.1.14.28-.33-.6-.89-.91-1.28-.3-.4-1.05-1.73-.79-3.12.26-1.4.65-2.17.98-3.05.33-.89,1.44-1.86,1.44-1.86,0,0-.35.91,0,1.63.35.72.95,2.26,1.14,2.7.19.44.47,2.77.63,2.91.16.14.91.56,1.28.89.37.33,2.28.37,1.96-.14-.33-.51-1.19-.91-1.65-1.59-.47-.68-1.03-3.05-1.1-3.47-.07-.42-.12-1.82-.12-1.82,0,0,.86-.05,1.05.09s.42,1,.58.98c.16-.02.16-1.02.3-1.14.14-.12,1.42-.68,1.84-1.37.42-.7.93-.56,1.17-.54.23.02,2.28,1.19,5.19.58,2.91-.61,3.96-1.05,4.75-1.03.79.02-.16,2.77.12,3.49.28.72-.4,4.96-.09,5.2.3.23.06-.16.3-.23.24-.07.26.47.49.81.23.35.72,1.07,1.49.84.77-.23.58.28.91.4.33.12,2.89.49,2-.37-.88-.86-1.61-.82-1.65-1.89-.05-1.07-.16-3.12.05-3.42.21-.3.35-1.72.42-2.07.07-.35.56-1.84.56-1.84,0,0,.86.19,1.44-.58.58-.77,2.54-4.8,3.1-5.57.56-.77,2.98-4.19,2.98-4.19,0,0,.77.05,1.05-.25,0,0,1.63.47,2.54.28.91-.19,1.23.16,1.7.16s2.38-.02,2.1-1.37M33.22,41.3c-.24-.44-.39-2.47-.33-2.93.06-.46.4-2.01.4-2.01,0,0,.08.5.16.79.07.29.1,2.36.1,2.81s-.19,1.54-.19,1.54c0,0,.11.24-.13-.19"/>
  </g>
  <g>
    <rect class="st2" x="0" y="52.06" width="55.96" height="50.4"/>
    <path class="st1" d="M5.95,65.84c.21.22.29.95.81,1.33.53.38,1.05.48,1.18.13.13-.35,1.64-.97,2.78-1.08,1.14-.11,1.38-.24,1.78-.51.4-.27.51-.08.89.3.38.38.33,3,.4,4.27.06,1.27.94,3.41.94,3.41,0,0,.49,1.54.19,2.99-.3,1.45,1.89,2.56,1.78,3.26-.11.7,1.05,2.57,1.07,3.37.02.79.53,4.15.73,4.72.21.57.19,2.57.14,3.16s-.35,1.48-.65,1.81c-.3.33-.54.8-.79,1.13-.26.33-.64.86-.64.86,1.65.41,2.21-.22,2.51-.57.3-.35.49-.6.48-.91-.02-.3-.4-.35-.14-.73.25-.38.54-.52.7-.89.16-.36-.24-3.64.13-4.37.37-.73.35-1.92.43-3.27.08-1.35.4-3.72.4-3.72.81.73,6.77.17,8.18.03,1.42-.14,3.34-1.02,3.84-.95.51.06.67.64.89.7.22.06.84-.33.84-.33,0,0,1.13,1.35,1.27,1.79.14.44,1.52,3.11,1.6,4,.08.89.59,1.96.76,2.77.17.81-.65,3.97-.83,4.61-.18.64-.64,1.02-.91,1.19-.27.18-.79,1.1-1,1.35-.21.25,1.72.49,2.38,0,.67-.49.16-1.05.08-1.22-.08-.18.3-.59.56-.75.25-.16.54-.35.49-.92-.05-.57.62-4.83,1.05-6,.43-1.18-.05-1.35-.24-1.61-.19-.25-.57-1.87-.57-1.87,0,0,1.8,1.95,1.87,2.72.08.76.78,1.35,1.08,1.81.3.46.6,3.4.67,4.4.07,1-.24,1.51-.41,1.76-.17.26-.24.57-.24.57l-.72.92s1.59.35,2.06.09c.48-.25.64-.86.27-1.27-.36-.41-.21-.76.3-1.33.51-.57-.62-5.15-.64-5.58-.02-.43.44-.94,1.3-3.18.86-2.24,1.15-4.65,1.35-9.04.21-4.38-4.24-5.37-5.1-5.39s-2.37.24-2.37.24c-1.14-.57-5.2-.91-7.5-.07-2.3.84-5.08.51-7.2-.11-2.11-.62-4.19-5.58-6.4-7.83-2.21-2.26-5.31-2.72-5.31-2.72-.22-.76-.71-.97-.71-.97.07.4-.02.73-.02.73-.35-.17-.73-1.08-.73-1.08-.29.38.06,1.78.06,1.78,0,0-.25.28-.98.71-.73.43-1.83,3.26-2.48,3.65-.65.4-1.89,1.46-1.68,1.68M41.19,78.2c.24-.42.59-2.92.71-3.85.01-.19.02-.9.07-1.13.08-.39.09.24.07.4-.06.88-.21,3.98-.12,4.67.12.84.9,4.09.08,5.07,0,0-.97-1.68-1.02-2.24-.05-.56-.07-2.42.21-2.92"/>
  </g>
  <g>
    <rect class="st2" x="0" y="260.32" width="55.96" height="50.4"/>
    <path class="st1" d="M40.64,280.34c-.14-.4-.66-.8-.93-.81.28-.13.71-.84-.03-.97.3-.43.15-.61-.2-.71.03-.46-.06-.56-.34-.46.07-.75-.16-1.34-.72-1.26s-.52.87-.52.87c0,0-.38-.84-.7-.74s-.09.75.04.86c-.71-.41-1.11-.44-1.27-.18-.23.36.22.86.22.86-3.48.51-2.7,8.15-6.58,8.9-3.02.58-5.33-.2-6.31-2.33-1.19-2.59-3.75-6.04-6.08-5.72-.54.07-.34,1.02.38,1.9-1.95-.62-1.41.91-.96,1.39-1.19-.26-.76,1.75-.04,2.59-.99-.36-.54.8.08,1.35-1.41-.33-.57,1.93-.04,2.52-1.3-.69-.31,1.68.54,2.37-.57.95.08,3.21,1.64,3.83-.04.4-.11,1.46,1.84,1.35-.76,1.71-.31,2.63,0,2.22.23.95,1.72,1.82,2.33,1.31.1.07.21.13.31.19.02.38.27.8.43.97.23.24.31.97.62,1.73.31.76-.19.99-.47,1.26-.28.27-.74.49-.71.58.04.09.21-.09.21-.09,0,0,.08.11.24.13.33.05.58-.44.83-.55.08.15.42.5.9.42.47-.09,1.41-.07,1.58.01s.87.18,1.09.07.33-.13.51,0c-.17-.5-1.07-.55-1.45-.58-.39-.02-1.23.02-.42-.17.81-.2,1.13-.34,1.13-.34.05-.08.28-.01.31,0-.17.11-.3.2-.28.25.04.09.21-.09.21-.09,0,0,.08.11.24.13.33.05.58-.44.83-.55.08.15.42.5.9.42.47-.09,1.41-.07,1.58.01.17.09.87.18,1.09.07.22-.11.33-.13.51,0-.17-.5-1.07-.55-1.45-.58-.39-.02-1.23.02-.42-.17.81-.2,1.13-.34,1.13-.34.05-.09.32,0,.32,0-.09-.26-.39-.21-.39-.21-.14-.13-1.77.32-1.98.34-.21.02-.53-1.22-.82-1.84-.3-.61-.4-1.02-.15-1.28,0,0,0,0-.01-.02.65-.6,1.19-1.57,1.19-1.57,1.45-.15,2.77-1.57,3.29-2.84.27-.66,5.05-1.74,4.17-8.53-.38-2.95-.11-4.78-.11-4.78.32.67,1.25.76,1.42-.86.57-.23.91-.13,1.05-.02.27.2.37.09.23-.3ZM28.53,302.76c-.13.12-.29.23-.42.32-.09-.25-.38-.2-.38-.2-.14-.13-1.77.32-1.98.34-.21.02-.53-1.22-.82-1.84-.3-.61-.4-1.02-.15-1.28,0,0-.06-.09-.17-.21,1.07-.07,2.05-.74,2.25-1.35.31.47.69,1.14,1.49,1.17.02.02.03.04.05.06.23.24.31.97.62,1.73.31.76-.19.99-.47,1.26Z"/>
  </g>
  <g>
    <rect class="st0" x="0" y="208.25" width="55.96" height="50.4"/>
    <g>
      <path class="st1" d="M26.79,250.19c-.09-.07-.17-.14-.24-.21h0c-.11-.1-.16-.36-.31-.63l-.39-.68c-.06-.09-.11-.18-.16-.27-.26-.46-.51-.94-.74-1.41-.17-.34-.34-.69-.53-1.02-.57-1.06-.57-2.01,0-2.9.16-.26.53-.98.37-1.41-.26.52-.96,1.56-1.98,2.47-.14.13-.18.47-.12.62.95,2.05,2.29,4.56,2.48,4.82.2.18.26.25.48.47.08.19.23,1.07.27,1.29.19.11,1.41.2,1.76,0,.06-.03.05-.05.05-.06-.05-.33-.54-.74-.94-1.08Z"/>
      <path class="st1" d="M35.13,249.94c-.35-.35-.41-2.34-.49-3.56-.08-1.19.17-2.17.5-2.76-1.23.93-1.54,2.21-1.54,2.21.07.73-.01,3.5,0,3.63.01.13.56.58.56.58,0,0,.22.96.23,1.12.01.16,1.74.37,1.71,0-.04-.38-.62-.86-.97-1.21Z"/>
      <path class="st1" d="M45.28,232.38c-.07-.04-.11-.11-.13-.19-.05-.21-.14-.47-.33-.71-.16-.21-.3-.28-.54-.54-.19-.21-.35-.42-.49-.62-.06-.09-.1-.19-.12-.3-.08-.67-.3-2.13-1.5-2.74-.21-.28-1.72-2.39-4.05-2.66-2.01-.23-3.18.4-3.89,1.07.46-.13,1.43-.39,2.49-.16,1.67.35,2.99,1.51,3.27,2.19-.89-.86-1.87-1.3-3.06-1.26.17.6,1.01,2,2.02,2.13-2.86,1.8-.06,5.2-7.25,4.58-2.32-.2-4.81-.92-6.72-1.37-1.13-.27-2.3-.2-3.27.44-.44.29-.96.63-1.41,1.16,0,0,0,0,0,0-.43.44-.72.52-1.08.54-.46.02-1.04-.1-1.27-.8-.39-1.2,1.06-1.89,1.14-1.93-.08.01-1.18.22-1.7.95-.2.25-.36.6-.31,1.08,0,0-.23-.18-.29-.47,0,0-.07.46.4,1.08,0,0-.03.03-.1.03-.06,0-.15-.02-.26-.11,0,.02.21.54.6.9.29.26.47.3.55.3.02,0,.03,0,.04,0-.04.02-.22.08-.44.1.55.28,1.18.38,1.82.22-.07.31-.17.73-.19,1.1-.19,2.86,4.06,4.58-.27,7.89.65,1.16,1.17,2.86,1.37,4.38.06.43.01.71.02.76.02.15.72.67.72.67,0,0,.33,1.16.36,1.35.03.19,2.15.33,2.08-.12-.07-.46-.81-1-1.26-1.4-.12-.11-.2-.38-.32-.73-.51-1.44-.61-2.45-.63-3.24-.02-.82.34-1.5.96-2.02.98-.82,1.26-1.17,2.05-2.24.14-.19.45-.31.67-.31,2.08.05,3.99,1.6,6.9.26.04.32.06.79.07,1.3h.01c-.06.6-.14,1.23-.22,1.65-.19,1.03.37,2.97.25,3.62-.13.65-.27,1.89.05,2.24.32.35-.16.96.1,1.07.26.1,1.71.19,1.83.06.11-.14-.21-.68-.6-1.12-.39-.44-.93-1.84-.59-2.92.34-1.08.18-2.14,1.11-3.3.52-.65,1.71-1.17,2.91-2.14,2.43-1.96,2.97-5.84,3.73-7.58.26-.59.53-.61.9-.59.27,0,.37.09.47.19-.08.87.25,2.88,1.71,3.27-.64-.46-1.45-1.95-1.05-3.03.05.92.45,1.81.99,2.18-.14-.38-.37-.76-.25-1.21.38.79.57,1.07,1.03,1.26-.34-.41-.87-1.13-.55-2.46.1.05.47.23.87.09.1-.04.48-.17.52-.48.02-.21-.11-.44-.15-.49.23,0,.39.02.45-.17.06-.16.03-.55-.18-.69Z"/>
    </g>
  </g>
</svg>