<?xml version="1.0" encoding="UTF-8"?>
<svg id="Layer_1" xmlns="http://www.w3.org/2000/svg" version="1.1" viewBox="0 0 214 44">
  <!-- Generator: Adobe Illustrator 29.1.0, SVG Export Plug-In . SVG Version: 2.1.0 Build 142)  -->
  <defs>
    <style>
      .st0 {
        fill: #274e5f;
      }

      .st1 {
        isolation: isolate;
      }

      .st2 {
        fill: #fff;
      }
    </style>
  </defs>
  <g>
    <rect class="st0" x="29.9" y="9.9" width="184.1" height="23.5"/>
    <path class="st2" d="M22,.4C10.3.4.8,10,.8,21.7s9.5,21.2,21.2,21.2,21.2-9.5,21.2-21.2S33.7.4,22,.4h0Z"/>
    <path class="st0" d="M22,43.7C9.9,43.7,0,33.8,0,21.7S9.9-.3,22-.3s22,9.9,22,22-9.9,22-22,22h0ZM22,.4C10.3.4.8,10,.8,21.7s9.5,21.2,21.2,21.2,21.2-9.5,21.2-21.2S33.7.4,22,.4h0Z"/>
    <circle class="st0" cx="22" cy="21.7" r="19.5"/>
  </g>
  <g class="st1">
    <g class="st1">
      <path class="st2" d="M59.3,16.9h2.7l4.3,10.2h-3l-.7-1.8h-3.9l-.7,1.8h-3s4.3-10.2,4.3-10.2ZM61.8,23.1l-1.1-2.9-1.1,2.9h2.3-.1Z"/>
      <path class="st2" d="M67.3,17h2.6l4.2,5.4v-5.4h2.8v10.1h-2.5l-4.3-5.6v5.6h-2.8s0-10.1,0-10.1Z"/>
      <path class="st2" d="M81.2,19.4h-3v-2.5h8.9v2.5h-3v7.7h-2.8v-7.7h0Z"/>
      <path class="st2" d="M88.3,17h2.8v10.1h-2.8v-10.1Z"/>
      <path class="st2" d="M93,17h4.3c2.6,0,4.2,1.3,4.2,3.6h0c0,2.4-1.8,3.7-4.4,3.7h-1.4v2.9h-2.8v-10.1h.1ZM97.2,22c1,0,1.6-.5,1.6-1.3h0c0-.9-.6-1.4-1.6-1.4h-1.3v2.7s1.3,0,1.3,0Z"/>
      <path class="st2" d="M105.3,16.9h2.7l4.3,10.2h-3l-.7-1.8h-3.9l-.7,1.8h-3s4.3-10.2,4.3-10.2ZM107.7,23.1l-1.1-2.9-1.1,2.9h2.3-.1Z"/>
      <path class="st2" d="M113.3,17h4.8c1.6,0,2.6.4,3.3,1.1.6.6.9,1.4.9,2.4h0c0,1.6-.8,2.6-2.1,3.1l2.4,3.5h-3.2l-2-3.1h-1.2v3.1h-2.8v-10.1h-.1ZM118,21.8c1,0,1.5-.5,1.5-1.2h0c0-.8-.6-1.2-1.5-1.2h-1.8v2.4h1.9,0Z"/>
      <path class="st2" d="M127.1,16.9h2.7l4.3,10.2h-3l-.7-1.8h-3.9l-.7,1.8h-3l4.3-10.2h0ZM129.5,23.1l-1.1-2.9-1.1,2.9h2.3,0Z"/>
      <path class="st2" d="M134.2,25.6l1.6-1.9c1,.8,2.1,1.2,3.3,1.2s1.2-.3,1.2-.7h0c0-.4-.3-.7-1.7-1-2.2-.5-3.8-1.1-3.8-3.2h0c0-1.9,1.5-3.3,3.9-3.3s3.1.5,4.2,1.3l-1.4,2c-.9-.7-1.9-1-2.8-1s-1,.3-1,.7h0c0,.5.3.7,1.8,1,2.3.5,3.8,1.3,3.8,3.2h0c0,2.1-1.6,3.3-4.1,3.3s-3.5-.6-4.8-1.7h-.2Z"/>
      <path class="st2" d="M144.4,17h2.8v10.1h-2.8v-10.1Z"/>
      <path class="st2" d="M151.6,19.4h-3v-2.5h8.9v2.5h-3v7.7h-2.8v-7.7h0Z"/>
      <path class="st2" d="M160.9,16.9h2.7l4.3,10.2h-3l-.7-1.8h-3.9l-.7,1.8h-3l4.3-10.2h0ZM163.4,23.1l-1.1-2.9-1.1,2.9h2.3,0Z"/>
      <path class="st2" d="M168.9,17h4.8c1.6,0,2.6.4,3.3,1.1.6.6.9,1.4.9,2.4h0c0,1.6-.8,2.6-2.1,3.1l2.4,3.5h-3.2l-2-3.1h-1.2v3.1h-2.8v-10.1h0ZM173.6,21.8c1,0,1.5-.5,1.5-1.2h0c0-.8-.6-1.2-1.5-1.2h-1.8v2.4h1.9,0Z"/>
      <path class="st2" d="M179.4,17h2.8v10.1h-2.8v-10.1Z"/>
      <path class="st2" d="M183.7,22.1h0c0-2.9,2.3-5.3,5.5-5.3s5.5,2.3,5.5,5.2h0c0,2.9-2.3,5.3-5.5,5.3s-5.5-2.3-5.5-5.2ZM191.8,22.1h0c0-1.5-1.1-2.8-2.6-2.8s-2.6,1.2-2.6,2.7h0c0,1.5,1.1,2.8,2.6,2.8s2.6-1.2,2.6-2.7Z"/>
    </g>
  </g>
  <g>
    <path class="st2" d="M22.2,19.3c.3-.1.6-.2,1-.2h4.3c1.2,0,1.2.3,1.7.7.7.6,2,3.1,2.5,4s.3.7.5,1.1h2.6c.5-1.5,2.3-2.2,3.6-1.2,2,1.6.3,4.8-2.2,3.8s-1-.8-1.3-1.5h-2.6s-.3.7-.4.9c-.6,1-1.3,2.5-2,3.4-.6.8-1.5,1.4-2.5,1.4h-.6c-1.6,0-4.1.4-5.2-.7-.5-.5-2.2-3.4-2.5-4.2s-.3-.7-.3-1c-.3.1-.6.2-1,.2h-4.3c-.4,0-.8-.3-1,0-.4.5-.7,1.4-1.1,1.9.3.5.6.9.6,1.5.1,2.2-2.7,3.3-4,1.5-1.3-1.7.4-4,2.4-3.5l1.3-2.2c-.2-.2-.4-.5-.6-.8-.8-1.3-2.4-3.6-2.2-5.1s1.9-3.8,2.4-4.5c1.2-1.8,3-1.3,4.8-1.3s.9-.1,1.3,0,1,.2,1.5.3l1.5-1.9c-1.2-1.9.6-4.3,2.8-3.3,1.8.8,1.6,3.5-.3,4.1s-1,0-1.6,0l-1.4,1.9c.7,1.3,1.6,2.5,2.2,3.8s.3.7.4,1.1c0,0-.3-.2-.3-.2ZM21.7,9.3c-1.1.2-1.1,1.9,0,2.1,1.6.3,1.6-2.4,0-2.1ZM13.4,14.5c-.4,0-1,.2-1.2.6s-2.2,3.7-2.3,4.1,0,.8.2,1.3c.3.7,1.6,3,2.1,3.6.3.4.8.7,1.3.7h4.1c.6,0,1-.3,1.3-.7s1.8-2.9,2.1-3.6.3-.9,0-1.5c-.3-.8-1.5-2.8-2.1-3.6s-.9-.8-1.6-.9-2.9,0-3.8,0h0ZM23,20.2c-.4,0-.7.3-1,.6-.5.5-1.2,2-1.6,2.7s-.9,1.3-.8,2.2,1.8,3.3,2.1,3.9.7.9,1.6,1,2.7,0,3.7,0,1.1-.2,1.5-.7,1.9-3.1,2.2-3.7.1-1.1,0-1.5c-.3-.7-1.6-3-2.1-3.6-.3-.4-.8-.7-1.3-.7-1,0-3.4-.1-4.3,0,0,0,0-.2,0-.2ZM36.7,24.3c-1.1.2-1.2,1.8,0,2.1,1.6.4,1.7-2.3,0-2.1ZM9.3,28.4c-1.1.2-1.1,1.9,0,2.1s1.5-2.4,0-2.1Z"/>
    <path class="st2" d="M10.9,20c-.1-.1-.2-.4-.1-.6.6-1,1.1-2.2,1.8-3.2s.5-.8,1-.5.3.5.2.8c-.4,1-1.5,2.4-2,3.4-.2.3-.6.3-.9,0h0Z"/>
    <path class="st2" d="M27.7,22.1s-.4.2-.5.2h-3.8c-.8,0-.8-1.1-.2-1.2h4.2c.4.1.6.7.3,1Z"/>
  </g>
</svg>