<?xml version="1.0" encoding="UTF-8"?>
<svg id="Layer_1" xmlns="http://www.w3.org/2000/svg" version="1.1" viewBox="0 0 214 44">
  <!-- Generator: Adobe Illustrator 29.1.0, SVG Export Plug-In . SVG Version: 2.1.0 Build 142)  -->
  <defs>
    <style>
      .st0 {
        isolation: isolate;
      }

      .st1 {
        fill: #fff;
      }

      .st2 {
        fill: #609440;
      }
    </style>
  </defs>
  <g>
    <rect class="st2" x="29.9" y="10.2" width="184.1" height="23.5"/>
    <path class="st1" d="M22,.8C10.3.8.8,10.3.8,22s9.5,21.2,21.2,21.2,21.2-9.5,21.2-21.2S33.7.8,22,.8h0Z"/>
    <path class="st2" d="M22,44C9.9,44,0,34.1,0,22S9.9,0,22,0s22,9.9,22,22-9.9,22-22,22h0ZM22,.8C10.3.8.8,10.3.8,22s9.5,21.2,21.2,21.2,21.2-9.5,21.2-21.2S33.7.8,22,.8h0Z"/>
    <circle class="st2" cx="22" cy="22" r="19.5"/>
  </g>
  <g class="st0">
    <g class="st0">
      <path class="st1" d="M59.3,17.3h2.7l4.3,10.2h-3l-.7-1.8h-3.9l-.7,1.8h-3l4.3-10.2ZM61.8,23.5l-1.1-2.9-1.1,2.9h2.3-.1Z"/>
      <path class="st1" d="M67.3,17.4h2.6l4.2,5.4v-5.4h2.8v10.1h-2.5l-4.3-5.6v5.6h-2.8s0-10.1,0-10.1Z"/>
      <path class="st1" d="M81.2,19.8h-3v-2.5h8.9v2.5h-3v7.7h-2.8v-7.7h0Z"/>
      <path class="st1" d="M88.3,17.4h2.8v10.1h-2.8v-10.1Z"/>
      <path class="st1" d="M93,17.4h5.2c1.3,0,2.2.3,2.8.9.4.4.7.9.7,1.6h0c0,1.2-.7,1.9-1.6,2.3,1.2.4,2,1.1,2,2.5h0c0,1.8-1.4,2.8-3.8,2.8h-5.2v-10.1h0ZM97.5,21.4c.9,0,1.3-.3,1.3-.9h0c0-.6-.4-.9-1.3-.9h-1.8v1.8h1.8ZM97.9,25.2c.9,0,1.3-.3,1.3-.9h0c0-.6-.4-.9-1.4-.9h-2.1v1.9h2.2Z"/>
      <path class="st1" d="M103.4,17.4h2.8v10.1h-2.8v-10.1Z"/>
      <path class="st1" d="M107.8,22.5h0c0-2.9,2.3-5.3,5.5-5.3s5.5,2.3,5.5,5.2h0c0,2.9-2.3,5.3-5.5,5.3s-5.5-2.3-5.5-5.2ZM115.8,22.5h0c0-1.5-1.1-2.8-2.6-2.8s-2.6,1.2-2.6,2.7h0c0,1.5,1.1,2.8,2.6,2.8s2.6-1.2,2.6-2.7Z"/>
      <path class="st1" d="M122.2,19.8h-3v-2.5h8.9v2.5h-3v7.7h-2.8v-7.7h0Z"/>
      <path class="st1" d="M129.4,17.4h2.8v10.1h-2.8v-10.1Z"/>
      <path class="st1" d="M133.7,22.5h0c0-3,2.3-5.3,5.3-5.3s3.4.9,4.3,2.1l-2.1,1.6c-.6-.7-1.2-1.2-2.2-1.2s-2.4,1.2-2.4,2.7h0c0,1.6,1,2.7,2.4,2.7s1.7-.5,2.3-1.2l2.1,1.5c-1,1.3-2.2,2.3-4.5,2.3s-5.2-2.2-5.2-5.2h0Z"/>
      <path class="st1" d="M144,22.5h0c0-2.9,2.3-5.3,5.5-5.3s5.5,2.3,5.5,5.2h0c0,2.9-2.3,5.3-5.5,5.3s-5.5-2.3-5.5-5.2ZM152.1,22.5h0c0-1.5-1.1-2.8-2.6-2.8s-2.6,1.2-2.6,2.7h0c0,1.5,1.1,2.8,2.6,2.8s2.6-1.2,2.6-2.7Z"/>
    </g>
  </g>
  <g id="_x37_aK39X">
    <g>
      <path class="st1" d="M36.4,28.4c0,1.6-.8,3.5-1.7,4.9-.2.3-.5.8-.8,1-.4.3-.9,0-.8-.4,1.2-1.6,2.1-3.4,2.3-5.5-.6-.4-1.1-.9-1.2-1.6-2.1,0-3.2-2.3-2.2-4.1-.6-.6-1-1.5-.9-2.4s.3-.9.3-.9c0,0-.2-.2-.3-.2-.2,0-.4.1-.7.2-1.2.4-2.6,0-3.2-1.2s-.3-.7-.3-.7c0,0-1-.1-1.1-.1-.8,1-2,1.2-3.1.7s-.3-.2-.4-.2c-.3,0-1.6.6-1.9.7s-1,.6-1,.7v.5c-.2,1.3-1.3,2.2-2.6,2.3-.1.3-.9,1.5-.8,1.8s.2.3.3.4c.6,1.2.5,2.5-.5,3.4s-.4.2-.4.3c0,.3.2,1.5.3,1.8,1.6,6.9,9.8,9.8,15.6,5.7s.9-.7,1-.8c.4,0,.7.3.5.7s-.6.5-.8.7c-4.6,3.5-11.4,2.7-15-1.8-1.1,1.2-3.2,1-4.1-.3-1.1-1.7-.1-3.9,1.9-4.1l-.2-1.5c-1.2.3-2.5-.4-3-1.6-1-2.3,1.4-4.5,3.7-3.4l.7-1.3c-1.5-.6-2.2-2.3-1.5-3.8,1-1.9,3.9-1.9,4.8,0,0,0,.9-.5,1.1-.6.4-.2.9-.4,1.3-.6-1.4-2.1.5-4.7,2.9-4.1,1.2.3,2,1.5,2,2.7s-.4.8.4.7c.5-3.6,5.8-2.8,5.3.8-.5,3.6-.3.8-.5,1.1.3.1.8.4.8.8s-.4.6-.4.9c0,.5,0,1.1.3,1.5s.7.6.8.8c0,.4-.2.4-.3.7-.5.9-.3,1.9.5,2.4s.8.2,1.3.3.4.8.6,1.1.8.5,1.1,1v.6h0ZM23.6,14c-2.2.3-1.9,3.8.5,3.5s1.9-3.8-.5-3.5ZM29.3,15.1c-2.2.3-1.9,3.8.6,3.5,2.2-.3,1.8-3.9-.6-3.5ZM16.5,17.8c-2.1.3-1.8,3.9.6,3.5,2.2-.3,1.8-3.9-.6-3.5ZM15.3,24.5c-1.6-1.7-4.2.8-2.6,2.5s4.2-.8,2.6-2.5ZM14.9,30.7c-.8,0-1.5.9-1.6,1.6-.1,1.7,2,2.6,3.1,1.3-.4-.6-.7-1.1-1-1.7s-.3-1-.4-1.1,0,0-.2,0h0Z"/>
      <path class="st1" d="M10.9,9.6c1.7.4,2.7,2.3,1.8,3.9-1.1,2-4,1.8-4.8-.3s.3-3.2,2-3.6h1ZM10.4,10.4c-2.4,0-2.3,3.6,0,3.6s2.3-3.6,0-3.6Z"/>
      <path class="st1" d="M10,17.7c3.6-.4,4,5,.5,5.3-3.6.3-4-5-.5-5.3ZM10,18.6c-.7.1-1.4.8-1.5,1.5-.2,1.8,2.2,2.8,3.2,1.2.9-1.3-.2-3-1.7-2.8h0Z"/>
      <path class="st1" d="M21.7,19.5c3.7-.4,4.1,5,.7,5.3-3.5.3-4-4.9-.7-5.3ZM21.8,20.4c-2.1.3-1.8,3.8.5,3.5s2-3.9-.5-3.5Z"/>
      <path class="st1" d="M19.5,13.5c-.2-.3,0-.7,0-1,.2-1.6-1.7-2.6-2.9-1.5-1.2,1-.5,3.1,1.1,3.1s1.1-.4,1.3,0-.3.7-.7.8c-2.4.5-4.2-2.3-2.7-4.2,1.4-1.8,4.3-1.1,4.7,1s0,1.3-.2,1.7-.5.3-.7,0h.1Z"/>
    </g>
  </g>
</svg>