<?xml version="1.0" encoding="UTF-8"?>
<svg id="Layer_1" xmlns="http://www.w3.org/2000/svg" version="1.1" viewBox="0 0 214 44">
  <!-- Generator: Adobe Illustrator 29.1.0, SVG Export Plug-In . SVG Version: 2.1.0 Build 142)  -->
  <defs>
    <style>
      .st0 {
        fill: #fff;
      }

      .st1 {
        fill: #609440;
      }
    </style>
  </defs>
  <g>
    <path class="st0" d="M7.9,26.6l1.6-1.9c1,.8,2.1,1.2,3.3,1.2s1.2-.3,1.2-.7h0c0-.4-.3-.7-1.7-1-2.2-.5-3.8-1.1-3.8-3.2h0c0-1.9,1.5-3.3,3.9-3.3s3.1.5,4.2,1.3l-1.4,2c-.9-.7-1.9-1-2.8-1s-1,.3-1,.7h0c0,.5.3.7,1.8,1,2.3.5,3.8,1.3,3.8,3.2h0c0,2.1-1.6,3.3-4.1,3.3s-3.5-.6-4.8-1.7h-.2,0Z"/>
    <path class="st0" d="M20.7,17.9h2.7l4.3,10.2h-3l-.7-1.8h-3.9l-.7,1.8h-3s4.3-10.2,4.3-10.2ZM23.2,24.1l-1.1-2.9-1.1,2.9h2.3s-.1,0,0,0Z"/>
    <path class="st0" d="M28,17.9h2.8v7.7h4.9v2.5h-7.7v-10.1h0Z"/>
    <path class="st0" d="M35.8,23.6v-5.7h2.9v5.6c0,1.5.7,2.2,1.9,2.2s1.9-.7,1.9-2.1v-5.7h2.9v5.6c0,3.3-1.9,4.7-4.8,4.7s-4.7-1.5-4.7-4.6c0,0,0,0-.1,0Z"/>
    <path class="st0" d="M46.2,17.9h3.9c3.6,0,5.7,2.1,5.7,5h0c0,3-2.1,5.1-5.8,5.1h-3.9v-10.1h0ZM50.1,25.6c1.7,0,2.8-.9,2.8-2.6h0c0-1.7-1.1-2.6-2.8-2.6h-1.1v5.2h1.1Z"/>
    <path class="st0" d="M63.3,17.9h2.7l4.3,10.2h-3l-.7-1.8h-3.9l-.7,1.8h-3s4.3-10.2,4.3-10.2ZM65.8,24.1l-1.1-2.9-1.1,2.9h2.3-.1Z"/>
    <path class="st0" d="M70.6,17.9h2.6l4.2,5.4v-5.4h2.8v10.1h-2.5l-4.3-5.6v5.6h-2.8s0-10.1,0-10.1Z"/>
    <path class="st0" d="M81.3,17.9h2.8v10.1h-2.8v-10.1Z"/>
    <path class="st0" d="M85.3,17.9h3l2.4,3.9,2.4-3.9h3v10.1h-2.8v-5.8l-2.6,4h0l-2.6-3.9v5.8h-2.8v-10.1h0Z"/>
    <path class="st0" d="M100.7,17.9h2.7l4.3,10.2h-3l-.7-1.8h-3.9l-.7,1.8h-3l4.3-10.2h0ZM103.1,24.1l-1.1-2.9-1.1,2.9h2.3-.1Z"/>
    <path class="st0" d="M107.9,17.9h2.8v7.7h4.9v2.5h-7.7v-10.1h0Z"/>
  </g>
  <g>
    <g>
      <rect class="st1" x="29.9" y="10.5" width="184.1" height="23.5"/>
      <path class="st0" d="M22,1.1C10.3,1.1.8,10.6.8,22.3s9.5,21.2,21.2,21.2,21.2-9.5,21.2-21.2S33.7,1.1,22,1.1h0Z"/>
      <path class="st1" d="M22,44.3C9.9,44.3,0,34.4,0,22.3S9.9.3,22,.3s22,9.9,22,22-9.9,22-22,22h0ZM22,1.1C10.3,1.1.8,10.6.8,22.3s9.5,21.2,21.2,21.2,21.2-9.5,21.2-21.2S33.7,1.1,22,1.1h0Z"/>
      <circle class="st1" cx="22" cy="22.3" r="19.5"/>
    </g>
    <g>
      <path class="st0" d="M55.4,22.7h0c0-2.9,2.3-5.3,5.5-5.3s5.5,2.3,5.5,5.2h0c0,2.9-2.3,5.3-5.5,5.3s-5.5-2.3-5.5-5.2ZM63.5,22.7h0c0-1.5-1.1-2.8-2.6-2.8s-2.6,1.2-2.6,2.7h0c0,1.5,1.1,2.8,2.6,2.8s2.6-1.2,2.6-2.7Z"/>
      <path class="st0" d="M69.2,20.1h-3v-2.5h8.9v2.5h-3v7.7h-2.8v-7.7h0Z"/>
      <path class="st0" d="M75.5,17.6h4.8c1.6,0,2.6.4,3.3,1.1.6.6.9,1.4.9,2.4h0c0,1.6-.8,2.6-2.1,3.1l2.4,3.5h-3.2l-2-3.1h-1.2v3.1h-2.8v-10.1h-.1ZM80.2,22.5c1,0,1.5-.5,1.5-1.2h0c0-.8-.6-1.2-1.5-1.2h-1.8v2.4h1.9,0Z"/>
      <path class="st0" d="M84.9,22.7h0c0-2.9,2.3-5.3,5.5-5.3s5.5,2.3,5.5,5.2h0c0,2.9-2.3,5.3-5.5,5.3s-5.5-2.3-5.5-5.2ZM92.9,22.7h0c0-1.5-1.1-2.8-2.6-2.8s-2.6,1.2-2.6,2.7h0c0,1.5,1.1,2.8,2.6,2.8s2.6-1.2,2.6-2.7Z"/>
      <path class="st0" d="M95.7,26.3l1.6-1.9c1,.8,2.1,1.2,3.3,1.2s1.2-.3,1.2-.7h0c0-.4-.3-.7-1.7-1-2.2-.5-3.8-1.1-3.8-3.2h0c0-1.9,1.5-3.3,3.9-3.3s3.1.5,4.2,1.3l-1.4,2c-.9-.7-1.9-1-2.8-1s-1,.3-1,.7h0c0,.5.3.7,1.8,1,2.3.5,3.8,1.3,3.8,3.2h0c0,2.1-1.6,3.3-4.1,3.3s-3.5-.6-4.8-1.7h-.2Z"/>
    </g>
    <g id="_x37_aK39X">
      <g>
        <path class="st0" d="M36.4,28.7c0,1.6-.8,3.5-1.7,4.9-.2.3-.5.8-.8,1-.4.3-.9,0-.8-.4,1.2-1.6,2.1-3.4,2.3-5.5-.6-.4-1.1-.9-1.2-1.6-2.1,0-3.2-2.3-2.2-4.1-.6-.6-1-1.5-.9-2.4s.3-.9.3-.9c0,0-.2-.2-.3-.2-.2,0-.4.1-.7.2-1.2.4-2.6,0-3.2-1.2s-.3-.7-.3-.7c0,0-1-.1-1.1-.1-.8,1-2,1.2-3.1.7s-.3-.2-.4-.2c-.3,0-1.6.6-1.9.7s-1,.6-1,.7v.5c-.2,1.3-1.3,2.2-2.6,2.3-.1.3-.9,1.5-.8,1.8s.2.3.3.4c.6,1.2.5,2.5-.5,3.4s-.4.2-.4.3c0,.3.2,1.5.3,1.8,1.6,6.9,9.8,9.8,15.6,5.7.2,0,.9-.7,1-.8.4,0,.7.3.5.7s-.6.5-.8.7c-4.6,3.5-11.4,2.7-15-1.8-1.1,1.2-3.2,1-4.1-.3-1.1-1.7-.1-3.9,1.9-4.1l-.2-1.5c-1.2.3-2.5-.4-3-1.6-1-2.3,1.4-4.5,3.7-3.4l.7-1.3c-1.5-.6-2.2-2.3-1.5-3.8,1-1.9,3.9-1.9,4.8,0,0,0,.9-.5,1.1-.6.4-.2.9-.4,1.3-.6-1.4-2.1.5-4.7,2.9-4.1,1.2.3,2,1.5,2,2.7s-.4.8.4.7c.5-3.6,5.8-2.8,5.3.8-.5,3.6-.3.8-.5,1.1.3.1.8.4.8.8s-.4.6-.4.9c0,.5,0,1.1.3,1.5s.7.6.8.8c0,.4-.2.4-.3.7-.5.9-.3,1.9.5,2.4s.8.2,1.3.3.4.8.6,1.1c.3.5.8.5,1.1,1v.6ZM23.6,14.3c-2.2.3-1.9,3.8.5,3.5,2.2-.3,1.9-3.8-.5-3.5ZM29.3,15.4c-2.2.3-1.9,3.8.6,3.5,2.2-.3,1.8-3.9-.6-3.5ZM16.5,18.1c-2.1.3-1.8,3.9.6,3.5,2.2-.3,1.8-3.9-.6-3.5ZM15.3,24.8c-1.6-1.7-4.2.8-2.6,2.5s4.2-.8,2.6-2.5ZM14.9,31c-.8,0-1.5.9-1.6,1.6-.1,1.7,2,2.6,3.1,1.3-.4-.6-.7-1.1-1-1.7s-.3-1-.4-1.1,0,0-.2,0h0Z"/>
        <path class="st0" d="M10.9,9.9c1.7.4,2.7,2.3,1.8,3.9-1.1,2-4,1.8-4.8-.3s.3-3.2,2-3.6h1ZM10.4,10.7c-2.4,0-2.3,3.6,0,3.6s2.3-3.6,0-3.6Z"/>
        <path class="st0" d="M10,18c3.6-.4,4,5,.5,5.3s-4-5-.5-5.3ZM10,18.9c-.7.1-1.4.8-1.5,1.5-.2,1.8,2.2,2.8,3.2,1.2.9-1.3-.2-3-1.7-2.8h0Z"/>
        <path class="st0" d="M21.8,19.8c3.7-.4,4.1,5,.7,5.3-3.5.3-4-4.9-.7-5.3ZM21.8,20.7c-2.1.3-1.8,3.8.5,3.5s2-3.9-.5-3.5Z"/>
        <path class="st0" d="M19.5,13.8c-.2-.3,0-.7,0-1,.2-1.6-1.7-2.6-2.9-1.5-1.2,1-.5,3.1,1.1,3.1s1.1-.4,1.3,0-.3.7-.7.8c-2.4.5-4.2-2.3-2.7-4.2,1.5-1.9,4.3-1.1,4.7,1s0,1.3-.2,1.7-.5.3-.7,0h.1Z"/>
      </g>
    </g>
  </g>
</svg>